<svg width="100" height="100" viewBox="0 0 100 100" fill="none" xmlns="http://www.w3.org/2000/svg">
<path fill-rule="evenodd" clip-rule="evenodd" d="M15.7544 10.9231C13.7539 11.8252 12 13.7888 12 15.1267C12 15.5005 12.5709 16.3386 13.2681 16.9893C18.941 22.2803 20.3853 31.1647 18.3027 47.9574C16.7768 60.2586 17.7882 68.7597 21.7837 77.2217C23.9967 81.907 28.8047 87.7448 31.6581 89.2096C32.6961 89.7424 35.8268 89.9228 44.9259 89.9738C58.2002 90.0482 57.3998 90.2252 61.7301 86.262C66.297 82.083 70.2573 73.9967 71.2032 66.9185C71.5274 64.4916 71.6347 64.3572 74.9531 62.2262C79.0066 59.6229 82.0043 56.0601 84.3457 51.0634C88.7384 41.6888 89.2197 31.6655 85.5247 26.5139C84.9201 25.6707 83.3635 24.3609 82.0668 23.6042C80.0174 22.4083 79.1737 22.2279 75.6307 22.2279H71.5526L72.0258 20.5261C72.6848 18.1568 71.9302 16.7954 69.5687 16.0942C65.5736 14.9078 61.8409 14.8248 54.2309 15.7544C45.3155 16.8429 43.1081 16.5595 36.1016 13.4275C29.6837 10.5588 27.4128 9.99356 22.3199 10.0001C19.0079 10.0041 17.242 10.2524 15.7544 10.9231ZM30.6261 15.7819C40.0992 19.7295 42.6948 20.4647 47.1786 20.4722C49.4988 20.4757 53.662 20.1213 56.4297 19.6845C60.6176 19.0233 62.005 18.9919 64.6997 19.4966C67.3547 19.9939 67.8807 20.2498 67.6205 20.9155C67.4463 21.3623 67.1805 22.7476 67.03 23.9935C66.6388 27.241 67.5928 27.9532 70.8045 26.8107C76.1678 24.9026 80.55 26.1615 82.685 30.2241C85.0278 34.682 83.3872 44.7698 79.1903 51.7141C76.2746 56.5384 74.9139 57.6933 68.885 60.464C68.4123 60.6814 67.8989 62.1782 67.5123 64.4662C66.1601 72.4679 63.6436 78.0768 59.3706 82.6117C55.8015 86.3999 55.6193 86.4479 44.8222 86.4479H35.3083L33.2901 85.0736C30.5878 83.2334 28.5999 80.874 26.3964 76.8929C22.1724 69.2614 20.8121 60.2501 22.2514 49.4337C22.706 46.0153 23.1344 42.5434 23.2023 41.7188L23.3267 40.2195L45.099 40.089L66.8714 39.9591V42.4434C66.8714 46.0832 67.9145 55.0725 68.4546 56.0871C70.4179 59.7743 77.9353 50.4427 80.2605 41.4324C80.7539 39.5213 80.993 37.0514 80.8707 35.1388C80.701 32.4981 80.4342 31.7479 79.2135 30.4825C77.8784 29.0991 77.4853 28.9762 74.4542 28.9952C72.0983 29.0102 70.5005 29.3325 68.885 30.1197C66.7229 31.1737 66.6127 31.3316 66.4662 33.5976L66.3126 35.9714H45.018H23.7228L23.3775 31.4296C22.9733 26.1115 20.8605 19.7665 18.5388 16.8983C17.7112 15.8763 17.0341 14.9308 17.0341 14.7973C17.0341 14.3375 18.8071 14.0976 22.5716 14.0482C25.8301 14.0052 26.9326 14.2426 30.6261 15.7819ZM76.3355 33.5726C77.8382 35.0644 75.8472 43.5304 73.009 47.716L71.6538 49.715L71.3351 46.4666C71.1599 44.6799 70.9898 41.0411 70.9576 38.3803C70.9012 33.739 70.9445 33.5331 72.0313 33.3257C74.266 32.8984 75.7415 32.9828 76.3355 33.5726Z" fill="#765A96"/>
</svg>
