<svg width="100" height="100" viewBox="0 0 100 100" fill="none" xmlns="http://www.w3.org/2000/svg">
<path fill-rule="evenodd" clip-rule="evenodd" d="M46.8982 13.8506V17.701L44.4869 15.2816L42.0755 12.862L39.9221 15.0215C38.7377 16.2092 37.7688 17.2985 37.7688 17.4421C37.7688 17.5858 39.8236 19.77 42.3351 22.2959L46.9015 26.8887L46.8567 35.6601L46.8121 44.4315L44.3144 42.9751C42.9407 42.174 41.623 41.4033 41.3861 41.2623C41.1493 41.1214 38.849 39.7804 36.2743 38.2824L31.5931 35.5586L31.3285 34.684C31.183 34.2031 30.5926 31.9784 30.0166 29.7403C29.1405 26.3366 28.5614 24.1953 28.2042 23.0388C28.1564 22.8848 27.8357 22.9177 26.9684 23.165C26.3242 23.3487 25.0219 23.7049 24.0745 23.9565C23.1271 24.2083 22.2977 24.4634 22.2312 24.5233C22.0979 24.6438 22.1201 24.7444 23.0894 28.3983C23.4622 29.8031 23.7497 30.9524 23.7283 30.9524C23.7071 30.9524 22.2349 30.0971 20.4567 29.0519C18.6787 28.0066 17.157 27.1929 17.0755 27.2436C16.994 27.2942 16.4425 28.1889 15.8501 29.2319C15.2575 30.2748 14.5862 31.4507 14.3582 31.8452C13.8552 32.7152 13.5624 32.4455 17.4858 34.7242C19.0728 35.6459 20.3711 36.4485 20.3711 36.5079C20.3711 36.5673 19.0464 36.9584 17.4274 37.3771C15.8084 37.7958 14.4047 38.1874 14.3082 38.2469C14.1963 38.316 14.3556 39.1941 14.7482 40.6712C15.0868 41.9449 15.4294 43.2596 15.5099 43.5927C15.5946 43.9446 15.7779 44.2222 15.9467 44.2549C16.1985 44.3037 19.073 43.5938 21.8352 42.8007C24.3114 42.0897 27.9065 41.1714 28.2086 41.1726C28.3981 41.1735 29.5608 41.7636 30.7925 42.4842C32.0241 43.2045 35.3767 45.1593 38.2425 46.8281C41.1083 48.4966 43.4523 49.9126 43.4511 49.9742C43.4501 50.036 43.0043 50.3404 42.4606 50.6507C41.917 50.9609 40.1545 51.9887 38.5439 52.9347C36.9333 53.8807 35.1117 54.9437 34.4959 55.2971C32.6583 56.3515 29.6055 58.1363 29.3283 58.3179C28.322 58.9778 28.6758 59.0424 19.2643 56.479C17.3766 55.9648 15.803 55.5733 15.7676 55.609C15.6666 55.7105 14.142 61.6319 14.2023 61.6881C14.307 61.7858 20.0989 63.3333 20.3621 63.334C20.6732 63.3347 20.3425 63.5456 16.7537 65.6357C15.2853 66.4909 14.0498 67.2206 14.0082 67.2571C13.9306 67.3255 14.4154 68.3217 15.0477 69.3939C15.2444 69.7273 15.7548 70.604 16.182 71.342C16.6092 72.0802 17.0493 72.684 17.1601 72.684C17.3539 72.684 23.1683 69.3699 23.5929 69.0173C23.7529 68.8847 23.7624 68.9775 23.6341 69.4225C23.1475 71.1117 22.0617 75.4791 22.1163 75.5276C22.1511 75.5588 23.1099 75.8317 24.2468 76.1342C25.3837 76.4367 26.7014 76.7917 27.1751 76.923C27.6488 77.0542 28.0863 77.1087 28.1475 77.044C28.2085 76.9794 28.3378 76.5758 28.4348 76.1472C28.5318 75.7186 29.1283 73.4199 29.7605 71.039C30.3927 68.658 31.0386 66.205 31.1957 65.5881L31.4815 64.4661L35.5295 62.0771C37.7558 60.7629 39.6937 59.6353 39.8358 59.5711C39.9779 59.5068 41.5847 58.5739 43.4066 57.4977C45.2284 56.4216 46.7592 55.5411 46.8087 55.5411C46.8579 55.5411 46.8982 59.4951 46.8982 64.3278V73.1146L42.2053 77.8345L37.5124 82.5545L39.7929 84.8471L42.0736 87.1397L44.486 84.7193L46.8982 82.299V86.1494V90H49.9988H53.0994V86.1496V82.2992L55.384 84.5912C56.6406 85.8518 57.7465 86.8831 57.8412 86.8831C58.064 86.8831 62.2289 82.6902 62.2289 82.4661C62.2289 82.373 60.1741 80.23 57.6626 77.7041L53.0961 73.1113L53.1409 64.3385L53.1855 55.5657L54.4774 56.3096C56.1368 57.2651 57.9601 58.3247 63.7198 61.6805L68.3975 64.4061L68.86 66.164C69.1144 67.1309 69.3873 68.1169 69.4663 68.355C69.5456 68.5931 70.0935 70.658 70.684 72.9437C71.2747 75.2294 71.7678 77.1157 71.7802 77.1352C71.8042 77.1737 77.7854 75.6062 77.8668 75.5401C77.8937 75.5183 77.5382 74.0681 77.0765 72.3174C76.6149 70.5666 76.2525 69.1127 76.2712 69.0866C76.2898 69.0603 76.7618 69.3032 77.3199 69.6263C77.878 69.9494 79.0959 70.6521 80.0262 71.1879C80.9566 71.7235 81.8845 72.2793 82.0884 72.4229C82.7094 72.8601 82.9911 72.7316 83.5089 71.7749C83.7795 71.275 84.4545 70.0932 85.0089 69.1489C86.1404 67.222 86.1526 67.3283 84.7045 66.5075C84.2289 66.2379 82.9664 65.5108 81.8993 64.8918C80.832 64.2727 79.8173 63.6864 79.644 63.5889C79.3949 63.4487 80.0069 63.2362 82.5785 62.5707C84.3656 62.1082 85.8277 61.7143 85.8277 61.6952C85.8277 61.6764 85.5571 60.654 85.2264 59.4234C84.8957 58.1929 84.5346 56.8355 84.4239 56.4069C84.3133 55.9784 84.2118 55.6109 84.1984 55.5903C84.1769 55.5569 81.7739 56.1856 75.7509 57.8003C74.7087 58.0797 73.3422 58.4386 72.7142 58.5981L71.5723 58.8881L68.0633 56.8336C66.1334 55.7037 63.0554 53.8987 61.2234 52.8225C59.3915 51.7463 57.859 50.8658 57.8178 50.8658C57.7766 50.8658 57.4356 50.6613 57.0599 50.4114L56.3769 49.9571L58.1401 48.9207C61.3645 47.0256 62.9877 46.0767 64.7266 45.0694C66.9723 43.7687 69.4898 42.2952 70.6377 41.6097L71.5534 41.0629L72.7047 41.3661C73.3379 41.5328 75.7939 42.1896 78.1624 42.8256C82.7423 44.0556 84.0745 44.3745 84.1815 44.2663C84.218 44.2294 84.4551 43.4199 84.7084 42.4675C84.9618 41.5152 85.3137 40.1934 85.4906 39.5304C85.6674 38.8674 85.7833 38.2958 85.7478 38.2603C85.7125 38.2248 84.2652 37.8249 82.5318 37.3718L79.3801 36.5481L81.8717 35.0739C83.2422 34.2634 84.7317 33.3865 85.1818 33.1255C85.6317 32.8646 86 32.6204 86 32.583C86 32.5458 85.5099 31.6765 84.9108 30.6514C84.3117 29.6265 83.6108 28.4178 83.3533 27.9654C83.0956 27.5129 82.8527 27.1429 82.8133 27.1429C82.7738 27.1429 81.2859 27.9945 79.5067 29.0353C77.7277 30.0762 76.2569 30.9127 76.2385 30.8942C76.2201 30.8757 76.541 29.5759 76.9516 28.0061C77.3623 26.436 77.7252 25.0017 77.7581 24.8185C77.8107 24.5255 77.4982 24.3993 75.148 23.7654C73.6795 23.3692 72.3037 22.9877 72.0905 22.9177C71.8772 22.8478 71.7029 22.8331 71.7029 22.8852C71.7029 22.9629 70.2425 28.57 68.7675 34.1558C68.5331 35.044 68.3186 35.4719 67.9651 35.7567C67.6997 35.9706 67.4229 36.1458 67.3498 36.1463C67.2766 36.1468 66.9278 36.3321 66.5747 36.5581C66.0533 36.8916 59.8978 40.5063 57.8364 41.6894C56.1309 42.6681 53.8189 44.0261 53.487 44.2442L53.0994 44.4987V35.6897V26.8807L57.6641 22.2944C60.1748 19.7719 62.2289 17.5894 62.2289 17.4445C62.2289 17.2996 61.26 16.2092 60.0755 15.0215L57.9222 12.862L55.5108 15.2816L53.0994 17.701V13.8506V10H49.9988H46.8982V13.8506Z" fill="#765A96"/>
</svg>
