<svg width="100" height="100" viewBox="0 0 100 100" fill="none" xmlns="http://www.w3.org/2000/svg">
<path fill-rule="evenodd" clip-rule="evenodd" d="M29.1463 10.4143C28.2925 11.0645 27.6776 14.4471 27.9447 17.0261C28.4258 21.6718 30.3741 25.9089 33.2692 28.6046C35.0756 30.287 36.0073 30.5502 36.9234 29.6375C37.8314 28.7323 37.5891 28.0793 35.5571 25.955C34.4955 24.8453 33.2476 23.1008 32.7841 22.0783C31.999 20.3478 31.0024 14.9854 31.3935 14.596C32.0246 13.967 35.4311 16.5159 37.2682 18.9917C38.4741 20.617 39.629 22.8834 39.6271 23.6207C39.6265 23.8547 39.786 24.6353 39.9819 25.3551C40.2986 26.5206 40.4611 26.6632 41.465 26.6558C43.2239 26.6428 43.6009 25.7369 42.9846 23.0059C41.8225 17.8585 37.5484 12.9651 32.2173 10.6791C30.2583 9.83908 29.9377 9.81136 29.1463 10.4143ZM50.5462 18.102C46.5245 20.7332 43.1057 26.2506 42.5005 31.0872L42.2715 32.9164L41.0056 32.372C36.5076 30.4374 30.7033 30.4501 26.2061 32.4052C23.6642 33.5104 23.4983 34.024 24.7981 36.771C26.9672 41.3545 31.2168 44.5593 36.3055 45.4491C37.5587 45.6682 38.2343 45.8651 37.8073 45.8868C36.4513 45.9552 33.1578 47.3743 32.6339 48.1159C32.2441 48.6675 32.212 49.0697 32.4928 49.8871C33.6666 53.3059 37.0727 57.1451 40.2432 58.623C43.0624 59.9369 46.4093 60.3844 49.404 59.8475C52.4394 59.3036 53.4865 58.667 53.3488 57.449C53.1827 55.9791 52.4255 55.7651 49.2743 56.2976C46.1579 56.8242 43.9171 56.5539 41.5556 55.3663C40.0159 54.5917 37.4762 52.1561 36.7655 50.772C36.2748 49.8162 36.2826 49.8036 37.6004 49.4409C42.578 48.0713 48.653 49.4738 51.3984 52.6264C52.6597 54.075 56.5765 61.2584 55.9832 61.0355C54.0963 60.3257 50.5354 60.1025 47.7389 60.5187C44.4114 61.0141 40.9876 62.4891 40.7902 63.5126C40.6081 64.4562 42.5985 68.1786 44.3002 70.0765C46.1658 72.1575 49.3148 74.0206 51.8077 74.5189C55.3951 75.2357 60.4185 74.6929 61.4319 73.4791C62.8774 71.7479 60.974 69.8486 58.9083 70.9611C57.695 71.6147 53.3064 71.4585 51.2009 70.6867C49.1836 69.9474 46.3258 67.4904 45.4095 65.7077C44.9728 64.8581 44.978 64.7227 45.4536 64.5706C45.7506 64.4757 46.2575 64.3121 46.5805 64.2073C46.9031 64.1024 48.1656 63.9193 49.3858 63.8004C53.1598 63.4333 57.3089 64.8022 59.5456 67.1526C60.1527 67.7903 63.3346 73.0145 66.6161 78.7616C69.8976 84.5087 72.7903 89.4339 73.0442 89.7066C73.4426 90.1349 73.6762 90.1101 74.752 89.5272C75.4374 89.1556 75.9991 88.7544 76 88.6358C76.0009 88.5169 73.1156 83.3958 69.5881 77.2553C62.8592 65.5413 62.241 64.0789 62.7034 60.9628C63.0007 58.9578 63.913 56.6493 65.1339 54.813C66.3687 52.9554 67.8557 51.2952 68.2875 51.2921C68.7076 51.289 69.8181 53.9097 70.2643 55.9575C70.9535 59.1199 69.6447 63.1698 67.0318 65.9593C65.6443 67.4407 65.4773 67.7717 65.5992 68.8006C65.6723 69.4184 66.5974 70.1923 67.2572 70.1874C68.1246 70.1811 71.1649 66.7386 72.2866 64.4931C72.9015 63.2626 73.4924 61.472 73.5998 60.5139C73.7076 59.5557 73.8635 58.4535 73.9464 58.0646C74.383 56.0131 72.4639 50.5156 70.4945 48.1778C68.9653 46.3619 67.7858 46.7309 64.5197 50.0484C62.5224 52.0768 60.474 55.5078 59.8729 57.8319C59.7483 58.3134 59.5258 58.7823 59.3788 58.8737C59.2314 58.965 58.0545 57.2014 56.7629 54.9545C54.6407 51.2625 54.3999 50.6431 54.2608 48.5144C54.0084 44.6505 55.3711 41.0105 58.2441 37.8743L59.8339 36.1392L60.8019 38.2307C61.6173 39.9925 61.7636 40.7637 61.7305 43.1207C61.6831 46.4985 60.9512 48.3265 58.5861 50.976C56.956 52.8023 56.5712 54.0084 57.366 54.8003C58.1357 55.5673 59.2228 55.2183 60.8212 53.6913C63.5161 51.116 65.4281 46.6944 65.4555 42.9747C65.4863 38.7884 62.2524 32.099 60.205 32.1141C59.4854 32.1194 56.8424 34.0434 55.5972 35.4681C55.1324 36 55.1944 35.6851 55.8476 34.1969C56.9435 31.7005 57.3142 28.6939 56.848 26.0846C56.1997 22.4573 53.3771 17.4494 52.011 17.5021C51.6901 17.5146 51.0311 17.7846 50.5462 18.102ZM52.9698 25.0491C54.3766 29.2011 53.3192 33.1368 49.7429 37.0635C48.594 38.3252 48.3399 39.4635 49.05 40.1711C49.6932 40.8121 50.8845 40.6581 51.9864 39.791C52.9159 39.0601 52.9637 39.0538 52.6792 39.6984C52.5114 40.0795 52.0275 41.3542 51.604 42.5308L50.8343 44.6701L46.0254 36.241L46.0554 32.9179C46.0823 29.9303 46.1982 29.3586 47.2013 27.2571C47.8152 25.9714 48.9935 24.189 49.82 23.2966C51.2731 21.7276 51.3386 21.697 51.8116 22.3732C52.0805 22.758 52.6016 23.962 52.9698 25.0491ZM38.6213 35.2441C41.751 36.4925 43.0905 37.8135 45.5716 42.0985C46.8176 44.2499 47.7828 46.0637 47.7167 46.1296C47.6509 46.1951 46.9911 46.0852 46.2506 45.8854C45.5101 45.6855 43.8776 45.5115 42.6229 45.4987C40.3536 45.4752 40.3498 45.4735 41.8813 45.1628C43.9383 44.7457 45.0912 43.945 45.0987 42.9281C45.1097 41.4286 44.3538 41.1757 41.4182 41.6971C38.1793 42.2722 35.6972 42.0251 33.3487 40.8934C30.8127 39.6711 27.4333 35.8645 28.3688 35.2844C30.1148 34.2008 35.948 34.1781 38.6213 35.2441Z" fill="#765A96"/>
</svg>
