<svg width="29" height="29" viewBox="0 0 29 29" fill="none" xmlns="http://www.w3.org/2000/svg">
<path d="M24.7752 1.76953H3.53919C3.06985 1.76953 2.61973 1.95598 2.28785 2.28785C1.95598 2.61973 1.76953 3.06985 1.76953 3.53919V24.7752C1.76953 25.2445 1.95598 25.6946 2.28785 26.0265C2.61973 26.3584 3.06985 26.5448 3.53919 26.5448H13.5673V17.1066H11.2077V13.5673H13.5673V11.2077C13.5673 9.95615 14.0645 8.75583 14.9495 7.87083C15.8345 6.98582 17.0348 6.48863 18.2864 6.48863H21.8257V10.028H18.2864C17.9735 10.028 17.6734 10.1523 17.4522 10.3735C17.2309 10.5948 17.1066 10.8948 17.1066 11.2077V13.5673H21.8257L21.2358 17.1066H17.1066V26.5448H24.7752C25.2445 26.5448 25.6946 26.3584 26.0265 26.0265C26.3584 25.6946 26.5448 25.2445 26.5448 24.7752V3.53919C26.5448 3.06985 26.3584 2.61973 26.0265 2.28785C25.6946 1.95598 25.2445 1.76953 24.7752 1.76953Z" stroke="white" stroke-linecap="round" stroke-linejoin="round"/>
</svg>
