<svg width="29" height="29" viewBox="0 0 29 29" fill="none" xmlns="http://www.w3.org/2000/svg">
<path d="M20.293 1.76953H8.44808C4.87746 1.76953 1.98291 4.66409 1.98291 8.2347V20.0796C1.98291 23.6503 4.87746 26.5448 8.44808 26.5448H20.293C23.8636 26.5448 26.7582 23.6503 26.7582 20.0796V8.2347C26.7582 4.66409 23.8636 1.76953 20.293 1.76953Z" stroke="white" stroke-linecap="round" stroke-linejoin="round"/>
<path d="M14.3706 20.646C17.9542 20.646 20.8594 17.7409 20.8594 14.1572C20.8594 10.5736 17.9542 7.66846 14.3706 7.66846C10.787 7.66846 7.88184 10.5736 7.88184 14.1572C7.88184 17.7409 10.787 20.646 14.3706 20.646Z" stroke="white" stroke-linecap="round" stroke-linejoin="round"/>
<path d="M21.4493 6.48886C21.775 6.48886 22.0392 6.22476 22.0392 5.89897C22.0392 5.57318 21.775 5.30908 21.4493 5.30908C21.1235 5.30908 20.8594 5.57318 20.8594 5.89897C20.8594 6.22476 21.1235 6.48886 21.4493 6.48886Z" stroke="white" stroke-linecap="round" stroke-linejoin="round"/>
</svg>
