<svg width="27" height="27" viewBox="0 0 27 27" fill="none" xmlns="http://www.w3.org/2000/svg">
<path d="M24.1103 3.67012C23.9362 3.51975 23.7245 3.41967 23.4977 3.38065C23.271 3.34162 23.038 3.36513 22.8236 3.44864L3.36464 11.0951C3.11176 11.1957 2.89804 11.3752 2.75521 11.6069C2.61237 11.8385 2.54802 12.1101 2.5717 12.3812C2.59537 12.6523 2.70583 12.9086 2.88666 13.112C3.0675 13.3154 3.30908 13.4551 3.57558 13.5104L8.85956 14.5756V21.0936C8.85636 21.3447 8.92918 21.5908 9.06848 21.7998C9.20777 22.0087 9.40702 22.1706 9.64003 22.2643C9.79776 22.327 9.96598 22.3592 10.1357 22.3592C10.3005 22.3594 10.4636 22.3268 10.6157 22.2635C10.7678 22.2001 10.9058 22.1072 11.0217 21.99L14.0381 18.9736L18.4889 22.8865C18.7169 23.093 19.0144 23.206 19.3221 23.2029C19.4547 23.2026 19.5864 23.1812 19.7123 23.1397C19.9197 23.0716 20.1061 22.9515 20.2538 22.7909C20.4015 22.6302 20.5056 22.4344 20.556 22.2221L24.5217 4.90411C24.5736 4.68049 24.5626 4.44688 24.49 4.2291C24.4175 4.01132 24.286 3.81786 24.1103 3.67012ZM3.40683 12.308C3.39428 12.2166 3.41367 12.1237 3.4617 12.0449C3.50974 11.9661 3.58349 11.9063 3.6705 11.8756L21.5158 4.87247L9.18652 13.774L3.74433 12.6877C3.65368 12.6713 3.57115 12.625 3.50996 12.5562C3.44877 12.4873 3.41245 12.3999 3.40683 12.308ZM10.4205 21.3889C10.3632 21.4484 10.2893 21.4893 10.2084 21.5063C10.1275 21.5232 10.0434 21.5154 9.96698 21.4838C9.88922 21.4523 9.82259 21.3984 9.77563 21.3289C9.72866 21.2594 9.70348 21.1774 9.70331 21.0936V15.1557L13.4053 18.4147L10.4205 21.3889ZM23.699 4.72481L19.7334 22.0322C19.7176 22.104 19.6828 22.1702 19.6327 22.224C19.5827 22.2778 19.5191 22.3172 19.4486 22.3381C19.3806 22.3625 19.307 22.3676 19.2363 22.3527C19.1655 22.3378 19.1003 22.3035 19.0478 22.2537L9.95644 14.2592L23.6357 4.37676C23.6702 4.42704 23.6937 4.48404 23.7046 4.54402C23.7155 4.604 23.7136 4.66561 23.699 4.72481Z" fill="white"/>
</svg>
