<svg width="39" height="51" viewBox="0 0 39 51" fill="none" xmlns="http://www.w3.org/2000/svg">
<path d="M32.7791 28.4962C31.1089 31.8814 28.8458 35.2537 26.5316 38.2819C24.3364 41.1367 21.9891 43.8712 19.5 46.4738C17.0108 43.8713 14.6636 41.1367 12.4684 38.2819C10.1543 35.2537 7.89113 31.8814 6.22088 28.4962C4.5315 25.0761 3.5625 21.8726 3.5625 19.125C3.5625 14.8981 5.24162 10.8443 8.23049 7.85549C11.2193 4.86662 15.2731 3.1875 19.5 3.1875C23.7269 3.1875 27.7807 4.86662 30.7695 7.85549C33.7584 10.8443 35.4375 14.8981 35.4375 19.125C35.4375 21.8726 34.4653 25.0761 32.7791 28.4962ZM19.5 51C19.5 51 38.625 32.8759 38.625 19.125C38.625 14.0527 36.6101 9.18822 33.0234 5.60158C29.4368 2.01495 24.5723 0 19.5 0C14.4277 0 9.56322 2.01495 5.97658 5.60158C2.38995 9.18822 0.375 14.0527 0.375 19.125C0.375 32.8759 19.5 51 19.5 51Z" fill="#8113A6"/>
<path d="M19.5 25.5C17.8092 25.5 16.1877 24.8284 14.9922 23.6328C13.7966 22.4373 13.125 20.8158 13.125 19.125C13.125 17.4342 13.7966 15.8127 14.9922 14.6172C16.1877 13.4216 17.8092 12.75 19.5 12.75C21.1908 12.75 22.8123 13.4216 24.0078 14.6172C25.2033 15.8127 25.875 17.4342 25.875 19.125C25.875 20.8158 25.2033 22.4373 24.0078 23.6328C22.8123 24.8284 21.1908 25.5 19.5 25.5ZM19.5 28.6875C22.0361 28.6875 24.4684 27.68 26.2617 25.8867C28.055 24.0934 29.0625 21.6611 29.0625 19.125C29.0625 16.5889 28.055 14.1566 26.2617 12.3633C24.4684 10.57 22.0361 9.5625 19.5 9.5625C16.9639 9.5625 14.5316 10.57 12.7383 12.3633C10.945 14.1566 9.9375 16.5889 9.9375 19.125C9.9375 21.6611 10.945 24.0934 12.7383 25.8867C14.5316 27.68 16.9639 28.6875 19.5 28.6875Z" fill="#8113A6"/>
</svg>
