<svg width="26" height="26" viewBox="0 0 26 26" fill="none" xmlns="http://www.w3.org/2000/svg">
<path d="M19.7633 21.6674C19.6316 21.6676 19.5034 21.6251 19.3979 21.5463C19.2925 21.4675 19.2153 21.3567 19.1781 21.2304C19.1409 21.1041 19.1455 20.9691 19.1914 20.8457C19.2373 20.7223 19.3219 20.6171 19.4326 20.5458C20.0067 20.1675 20.495 19.6729 20.8658 19.0938C21.2164 18.5612 21.3367 18.1302 21.2241 17.8117C20.9954 17.1642 19.7641 16.6966 18.7172 16.3614C18.2549 16.2117 17.7603 16.193 17.288 16.3072C16.8158 16.4214 16.3844 16.6642 16.0416 17.0086L15.6451 17.4055C15.5741 17.4766 15.4866 17.5291 15.3904 17.5582C15.1182 17.6395 13.6244 17.9092 10.8587 15.1431C10.802 15.0865 10.757 15.0193 10.7263 14.9453C10.6956 14.8714 10.6797 14.7921 10.6796 14.712C10.6796 14.6319 10.6953 14.5526 10.7259 14.4786C10.7564 14.4045 10.8013 14.3373 10.8579 14.2806C10.9144 14.2239 10.9816 14.1789 11.0556 14.1482C11.1296 14.1175 11.2088 14.1016 11.2889 14.1016C11.369 14.1015 11.4483 14.1172 11.5224 14.1478C11.5964 14.1783 11.6636 14.2232 11.7203 14.2798C13.5346 16.0945 14.5966 16.3496 14.946 16.3793L15.18 16.1453C15.6809 15.6426 16.3111 15.2882 17.0008 15.1212C17.6906 14.9542 18.413 14.981 19.0885 15.1987C20.4555 15.6367 21.9489 16.2038 22.373 17.4038C22.6196 18.1006 22.4543 18.894 21.8855 19.7601C21.4216 20.4828 20.8111 21.1001 20.0936 21.572C19.9949 21.6348 19.8802 21.668 19.7633 21.6674ZM16.8354 22.4848C14.0461 22.4848 10.8436 20.872 7.98608 18.014C7.92788 17.9578 7.88146 17.8906 7.84952 17.8162C7.81759 17.7419 7.80077 17.6619 7.80007 17.581C7.79937 17.5001 7.81479 17.4199 7.84543 17.345C7.87607 17.2701 7.92131 17.202 7.97853 17.1448C8.03575 17.0876 8.10378 17.0424 8.17867 17.0117C8.25356 16.9811 8.33381 16.9657 8.41472 16.9664C8.49563 16.9671 8.57559 16.9839 8.64994 17.0158C8.72429 17.0477 8.79153 17.0942 8.84774 17.1524C11.5444 19.8495 14.6449 21.3822 17.1312 21.2587C17.2113 21.2536 17.2917 21.2646 17.3676 21.291C17.4434 21.3174 17.5132 21.3588 17.5728 21.4126C17.6324 21.4665 17.6807 21.5317 17.7146 21.6045C17.7486 21.6773 17.7676 21.7562 17.7706 21.8364C17.7788 21.9978 17.7225 22.1559 17.6142 22.2758C17.5059 22.3957 17.3543 22.4677 17.1929 22.4759C17.0747 22.4816 16.9553 22.4848 16.8354 22.4848Z" fill="white"/>
<path d="M8.41665 18.1927C8.33663 18.1927 8.25739 18.177 8.18349 18.1463C8.10958 18.1156 8.04248 18.0706 7.98602 18.0139C4.91152 14.9398 3.25321 11.3705 3.55018 8.46623C3.63455 7.5834 3.92088 6.73182 4.38701 5.97736C4.85315 5.2229 5.48659 4.58578 6.23834 4.11529C7.10649 3.54654 7.8999 3.38119 8.59459 3.62779C9.79465 4.05191 10.3622 5.54529 10.7997 6.91232C11.0178 7.58773 11.0448 8.31029 10.8777 9.00009C10.7107 9.68989 10.3561 10.32 9.85315 10.8208L9.61306 11.0613C9.64231 11.3754 9.87915 12.4426 11.7186 14.2805C11.8297 14.3954 11.8911 14.5493 11.8897 14.7091C11.8883 14.8689 11.8242 15.0217 11.7112 15.1347C11.5982 15.2477 11.4454 15.3118 11.2856 15.3132C11.1259 15.3146 10.9719 15.2531 10.857 15.1421C8.09124 12.3768 8.36018 10.8822 8.44184 10.6108C8.47072 10.5145 8.52322 10.4269 8.59459 10.3561L8.99149 9.95919C9.3356 9.61636 9.57818 9.18502 9.69239 8.71289C9.8066 8.24077 9.788 7.74625 9.63865 7.28404C9.30349 6.23672 8.8359 5.00538 8.18874 4.77666C7.86984 4.66413 7.4384 4.78438 6.90621 5.13457C6.30454 5.50433 5.79739 6.0093 5.42504 6.60937C5.05269 7.20944 4.82539 7.88807 4.76121 8.59135C4.50081 11.1345 6.0279 14.3353 8.84606 17.1531C8.93133 17.2383 8.98942 17.3469 9.01295 17.4651C9.03649 17.5834 9.02442 17.706 8.97827 17.8173C8.93213 17.9287 8.85398 18.0239 8.75372 18.0909C8.65346 18.1578 8.53559 18.1935 8.41502 18.1935L8.41665 18.1927Z" fill="white"/>
</svg>
